<svg xmlns="http://www.w3.org/2000/svg" width="50" height="50" fill="none" viewBox="0 0 50 50"><path fill="#F7931A" d="M25 50C38.8071 50 50 38.8071 50 25C50 11.1929 38.8071 0 25 0C11.1929 0 0 11.1929 0 25C0 38.8071 11.1929 50 25 50Z"/><path fill="#fff" d="M36.2326 21.9063C36.7232 18.6313 34.2279 16.8703 30.8186 15.6953L31.9248 11.2578L29.2248 10.5859L28.1467 14.9062C27.4373 14.7281 26.7092 14.5625 25.9826 14.3969L27.0686 10.0484L24.3686 9.375L23.2623 13.8109C22.6748 13.6766 22.0967 13.5453 21.5373 13.4047L21.5404 13.3906L17.8154 12.4609L17.0967 15.3453C17.0967 15.3453 19.1014 15.8047 19.0592 15.8328C20.1529 16.1063 20.3498 16.8297 20.317 17.4047L19.0576 22.4594C19.1326 22.4781 19.2295 22.5062 19.3389 22.5484L19.0529 22.4781L17.2873 29.5594C17.1529 29.8906 16.8139 30.3891 16.0482 30.2C16.0764 30.2391 14.0857 29.7109 14.0857 29.7109L12.7451 32.8016L16.2607 33.6781C16.9139 33.8422 17.5545 34.0141 18.1842 34.175L17.067 38.6625L19.7654 39.3344L20.8717 34.8969C21.6092 35.0953 22.3248 35.2797 23.0248 35.4547L21.9217 39.8734L24.6217 40.5453L25.7389 36.0672C30.3451 36.9391 33.8076 36.5875 35.2654 32.4219C36.4404 29.0688 35.2076 27.1328 32.7842 25.8719C34.5498 25.4656 35.8779 24.3047 36.2326 21.9063V21.9063ZM30.0607 30.5594C29.2279 33.9141 23.5795 32.1 21.7482 31.6453L23.2326 25.7C25.0639 26.1578 30.9342 27.0625 30.0607 30.5594ZM30.8967 21.8578C30.1357 24.9094 25.4357 23.3578 23.9123 22.9781L25.2561 17.5875C26.7795 17.9672 31.6904 18.675 30.8967 21.8578Z"/></svg>