<svg xmlns="http://www.w3.org/2000/svg" width="50" height="50" fill="none" viewBox="0 0 50 50"><path fill="#627EEA" d="M25 50C38.8071 50 50 38.8071 50 25C50 11.1929 38.8071 0 25 0C11.1929 0 0 11.1929 0 25C0 38.8071 11.1929 50 25 50Z"/><path fill="#fff" fill-opacity="0.602" d="M25.7783 6.25V20.1094L37.4924 25.3438L25.7783 6.25Z"/><path fill="#fff" d="M25.7781 6.25L14.0625 25.3438L25.7781 20.1094V6.25Z"/><path fill="#fff" fill-opacity="0.602" d="M25.7783 34.3254V43.7426L37.5002 27.5254L25.7783 34.3254Z"/><path fill="#fff" d="M25.7781 43.7426V34.3238L14.0625 27.5254L25.7781 43.7426Z"/><path fill="#fff" fill-opacity="0.2" d="M25.7783 32.1451L37.4924 25.3436L25.7783 20.1123V32.1451Z"/><path fill="#fff" fill-opacity="0.602" d="M14.0625 25.3436L25.7781 32.1451V20.1123L14.0625 25.3436Z"/></svg>