<svg xmlns="http://www.w3.org/2000/svg" width="50" height="50" fill="none" viewBox="0 0 50 50"><path fill="#00FFAD" d="M35.3148 18.6501C35.1398 18.8251 34.9048 18.9251 34.6598 18.9251H11.4348C10.6148 18.9251 10.1998 17.9251 10.7698 17.3301L14.5798 13.3851C14.7548 13.2051 14.9948 13.1001 15.2448 13.1001H38.5548C39.3798 13.1001 39.7948 14.1101 39.2098 14.7051L35.3148 18.6501ZM35.3148 36.2801C35.1398 36.4501 34.9048 36.5501 34.6598 36.5501H11.4348C10.6148 36.5501 10.1998 35.5751 10.7698 34.9951L14.5798 31.1451C14.7548 30.9701 14.9948 30.8701 15.2448 30.8701H38.5548C39.3798 30.8701 39.7948 31.8551 39.2098 32.4351L35.3148 36.2801ZM34.6598 21.9851C34.9048 21.9851 35.1398 22.0801 35.3148 22.2551L39.2098 26.1051C39.7948 26.6801 39.3798 27.6701 38.5548 27.6701H15.2448C14.9948 27.6701 14.7548 27.5701 14.5798 27.3951L10.7698 23.5451C10.1948 22.9651 10.6098 21.9901 11.4348 21.9901L34.6598 21.9851Z"/><path fill="#000" d="M25 0C38.805 0 50 11.195 50 25C50 38.805 38.805 50 25 50C11.195 50 0 38.805 0 25C0 11.195 11.195 0 25 0Z"/><path fill="url(#paint0_linear_312_1091)" fill-rule="evenodd" d="M11.5601 22.6151H34.6951C34.9851 22.6151 35.2601 22.7301 35.4601 22.9351L39.1201 26.6201C39.7951 27.3001 39.3151 28.4601 38.3551 28.4601H15.2201C14.9301 28.4601 14.6551 28.3451 14.4551 28.1401L10.7951 24.4551C10.1151 23.7751 10.6001 22.6151 11.5601 22.6151ZM10.7951 17.7301L14.4551 14.0451C14.6601 13.8401 14.9351 13.7251 15.2201 13.7251H38.3501C39.3101 13.7251 39.7951 14.8851 39.1151 15.5651L35.4601 19.2501C35.2551 19.4551 34.9801 19.5701 34.6951 19.5701H11.5601C10.6001 19.5701 10.1151 18.4101 10.7951 17.7301ZM39.1151 33.3451L35.4551 37.0301C35.2501 37.2351 34.9751 37.3501 34.6901 37.3501H11.5601C10.6001 37.3501 10.1151 36.1901 10.7951 35.5101L14.4551 31.8251C14.6601 31.6201 14.9351 31.5051 15.2201 31.5051H38.3501C39.3101 31.5051 39.7951 32.6651 39.1151 33.3451Z" clip-rule="evenodd"/><linearGradient id="paint0_linear_312_1091" x1="12.1261" x2="37.7841" y1="38.3666" y2="12.7086" gradientUnits="userSpaceOnUse"><stop stop-color="#CB4EE8"/><stop offset="1" stop-color="#10F4B1"/></linearGradient></svg>